# xmcd
#
# Track frame offsets:
#	150
#	15855
#	38192
#	55427
#	74402
#	88275
#	102975
#	118112
#	134820
#	150475
#	172770
#	189975
#	208945
#	222820
#	237484
#	252612
#
# Disc length: 3591 seconds
#
# Revision: 1
# Processed by: cddbd v1.5.2PL0 Copyright (c) Steve Scherf et al.
# Submitted via: audiograbber 1.83.01
#
DISCID=eb0e0510
DTITLE=Clint Black - Hits of Clint Black vol.1
DYEAR=1900
DGENRE=Country
TTITLE0=Put  yourself in my shoes
TTITLE1=We tell ourselves
TTITLE2=State of mind
TTITLE3=Loving Blind
TTITLE4=Killin Time
TTITLE5=A Better Man
TTITLE6=Where are you now
TTITLE7=When My Ship Comes in
TTITLE8=Put  yourself in my shoes
TTITLE9=We tell ourselves
TTITLE10=State of mind
TTITLE11=Loving Blind
TTITLE12=Killin Time
TTITLE13=A Better Man
TTITLE14=Where are you now
TTITLE15=When My Ship Comes in
EXTD=
EXTT0=
EXTT1=
EXTT2=
EXTT3=
EXTT4=
EXTT5=
EXTT6=
EXTT7=
EXTT8=
EXTT9=
EXTT10=
EXTT11=
EXTT12=
EXTT13=
EXTT14=
EXTT15=
PLAYORDER=
